<?xml version="1.0" encoding="utf-8"?>
<!-- Generator: Adobe Illustrator 21.1.0, SVG Export Plug-In . SVG Version: 6.00 Build 0)  -->
<svg version="1.1" id="Layer_1" xmlns="http://www.w3.org/2000/svg" xmlns:xlink="http://www.w3.org/1999/xlink" x="0px" y="0px"
	 viewBox="0 0 64 64" style="enable-background:new 0 0 64 64;" xml:space="preserve">
<style type="text/css">
	.st0{fill:#FFFFFF;}
</style>
<path class="st0" d="M43.7,32l19.2-19.2c1.5-1.5,1.5-3.9,0-5.3l-6.4-6.4c-1.5-1.5-3.9-1.5-5.3,0L32,20.3L12.8,1.1
	c-1.5-1.5-3.9-1.5-5.3,0L1.1,7.5c-1.5,1.5-1.5,3.9,0,5.3L20.3,32L1.1,51.2c-1.5,1.5-1.5,3.9,0,5.3l6.4,6.4c1.5,1.5,3.9,1.5,5.3,0
	L32,43.7l19.2,19.2c1.5,1.5,3.9,1.5,5.3,0l6.4-6.4c1.5-1.5,1.5-3.9,0-5.3L43.7,32z"/>
</svg>
